<?xml version="1.0" standalone="no"?>
<!DOCTYPE svg PUBLIC "-//W3C//DTD SVG 1.1//EN" "http://www.w3.org/Graphics/SVG/1.1/DTD/svg11.dtd" >
<svg xmlns="http://www.w3.org/2000/svg">
<metadata></metadata>
<defs>
<font id="distant_galaxyregular" horiz-adv-x="650" >
<font-face units-per-em="1000" ascent="800" descent="-200" />
<missing-glyph horiz-adv-x="400" />
<glyph horiz-adv-x="1000" />
<glyph horiz-adv-x="1000" />
<glyph unicode="&#xd;" horiz-adv-x="400" />
<glyph unicode=" "  horiz-adv-x="400" />
<glyph unicode="&#x09;" horiz-adv-x="400" />
<glyph unicode="&#xa0;" horiz-adv-x="400" />
<glyph unicode="!" horiz-adv-x="250" d="M200 650l-20 -400h-160l-20 400h200zM200 100q0 -41 -29.5 -70.5t-70.5 -29.5t-70.5 29.5t-29.5 70.5t29.5 70.5t70.5 29.5t70.5 -29.5t29.5 -70.5z" />
<glyph unicode="&#x22;" horiz-adv-x="470" d="M420 550q0 -83 -58.5 -141.5t-141.5 -58.5v50q41 0 70.5 14.5t29.5 35.5q-41 0 -70.5 29.5t-29.5 70.5t29.5 70.5t70.5 29.5t70.5 -29.5t29.5 -70.5zM200 550q0 -83 -58.5 -141.5t-141.5 -58.5v50q41 0 70.5 14.5t29.5 35.5q-41 0 -70.5 29.5t-29.5 70.5t29.5 70.5 t70.5 29.5t70.5 -29.5t29.5 -70.5zM220 350zM0 350z" />
<glyph unicode="#" horiz-adv-x="240" d="M190 650l-50 -80v-40h20v-20h-10v-20h10v-20h-10v-20h10v-20h-20v-50h10v-130l10 -20v-210l-55 -20l-55 20v360h10v50h-20v20h10v20h-10v20h10v20h-10v20h20v40l-50 80h180z" />
<glyph unicode="'" horiz-adv-x="250" d="M200 550q0 -83 -58.5 -141.5t-141.5 -58.5v50q41 0 70.5 14.5t29.5 35.5q-41 0 -70.5 29.5t-29.5 70.5t29.5 70.5t70.5 29.5t70.5 -29.5t29.5 -70.5zM0 350z" />
<glyph unicode="(" horiz-adv-x="400" d="M300 -100h-50q-106 88 -153 187.5t-47 237.5q0 137 47 237t153 188h50q-92 -96 -131 -193.5t-39 -231.5q0 -135 38.5 -232t131.5 -193z" />
<glyph unicode=")" horiz-adv-x="400" d="M300 325q0 -138 -47 -237.5t-153 -187.5h-50q93 96 131.5 193t38.5 232q0 134 -39 231.5t-131 193.5h50q106 -88 153 -188t47 -237z" />
<glyph unicode="*" horiz-adv-x="700" d="M650 325q0 -134 -95.5 -229.5t-229.5 -95.5q-135 0 -230 95t-95 230q0 134 95.5 229.5t229.5 95.5t229.5 -95.5t95.5 -229.5zM555 493q-75 102 -200 115v-20q27 -3 54 -12l-10 -28q48 -16 85 -50l2 -1l20 21q17 -16 32 -36zM610 324v1q0 60 -25 116l-17 -10 q11 -26 16 -53l-29 -6q5 -23 5 -47q0 -9 -3 -27t-3 -26l29 -7q-5 -24 -15 -46l18 -10q24 55 24 115zM295 588v21q-125 -13 -200 -116l17 -10q17 22 37 40l20 -22q17 15 43 27q42 21 45 22l-9 29q23 7 47 9zM510 387q-12 35 -36 63l-69 -58q-23 28 -59 36l18 88q-19 4 -39 4 q-17 0 -34 -3l16 -88q-36 -7 -61 -35l-67 60q-25 -28 -37 -62l84 -31q-6 -18 -6 -37q0 -17 5 -33l-85 -28q12 -35 36 -63l68 57q24 -28 60 -35l-18 -88q19 -4 39 -4q17 0 34 3l-16 89q36 6 61 34l67 -60q25 28 37 62l-84 31q6 17 6 35v1q0 17 -6 33zM555 157l-17 10 q-16 -22 -37 -40l-20 22q-38 -33 -87 -49h-1l9 -28q-23 -7 -47 -10v-20q126 13 200 115zM96 378l-29 7q6 24 15 46l-17 10q-25 -56 -25 -117q0 -60 24 -115l18 10q-11 26 -17 53l30 6q-5 23 -5 47q0 26 6 52v1zM295 41v21q-27 3 -54 11l10 29q-48 16 -86 51h-1l-20 -22 q-18 17 -32 36l-18 -10q75 -103 201 -116z" />
<glyph unicode="," horiz-adv-x="250" d="M200 100q0 -83 -58.5 -141.5t-141.5 -58.5v50q41 0 70.5 14.5t29.5 35.5q-41 0 -70.5 29.5t-29.5 70.5t29.5 70.5t70.5 29.5t70.5 -29.5t29.5 -70.5zM0 -100z" />
<glyph unicode="-" horiz-adv-x="450" d="M350 275h-300v100h300v-100z" />
<glyph unicode="." horiz-adv-x="250" d="M200 100q0 -41 -29.5 -70.5t-70.5 -29.5t-70.5 29.5t-29.5 70.5t29.5 70.5t70.5 29.5t70.5 -29.5t29.5 -70.5z" />
<glyph unicode="0" horiz-adv-x="600" d="M550 200q0 -83 -58.5 -141.5t-141.5 -58.5h-150q-83 0 -141.5 58.5t-58.5 141.5v250q0 83 58.5 141.5t141.5 58.5h150q83 0 141.5 -58.5t58.5 -141.5v-250zM350 230v190q0 21 -14.5 35.5t-35.5 14.5h-50q-21 0 -35.5 -14.5t-14.5 -35.5v-190q0 -21 14.5 -35.5t35.5 -14.5 h50q21 0 35.5 14.5t14.5 35.5z" />
<glyph unicode="1" horiz-adv-x="300" d="M250 0h-200v450h-50v200h250v-650z" />
<glyph unicode="2" horiz-adv-x="600" d="M550 0h-550v180q0 70 58.5 120t141.5 50q62 0 106 14.5t44 35.5v20q0 21 -14.5 35.5t-35.5 14.5h-50q-21 0 -35.5 -14.5t-14.5 -35.5v-20h-200v50q0 83 58.5 141.5t141.5 58.5h150q83 0 141.5 -58.5t58.5 -141.5v-70q0 -70 -58.5 -120t-141.5 -50q-41 0 -70.5 -9 t-29.5 -21h300v-180z" />
<glyph unicode="3" horiz-adv-x="600" d="M550 200q0 -83 -58.5 -141.5t-141.5 -58.5h-150q-83 0 -141.5 58.5t-58.5 141.5v50h200v-20q0 -21 14.5 -35.5t35.5 -14.5h50q21 0 35.5 14.5t14.5 35.5t-14.5 35.5t-35.5 14.5h-25v90h25q21 0 35.5 14.5t14.5 35.5t-14.5 35.5t-35.5 14.5h-50q-21 0 -35.5 -14.5 t-14.5 -35.5v-20h-200v50q0 83 58.5 141.5t141.5 58.5h150q83 0 141.5 -58.5t58.5 -141.5q0 -48 -12 -74q-8 -18 -38 -51q30 -33 38 -51q12 -26 12 -74z" />
<glyph unicode="4" horiz-adv-x="600" d="M550 100h-50v-100h-200v100h-300v160l200 390h300v-390h50v-160zM300 260v220l-100 -220h100z" />
<glyph unicode="5" horiz-adv-x="600" d="M550 200q0 -83 -58.5 -141.5t-141.5 -58.5h-150q-83 0 -141.5 58.5t-58.5 141.5v30h200q0 -21 14.5 -35.5t35.5 -14.5h50q21 0 35.5 14.5t14.5 35.5v50q0 21 -14.5 35.5t-35.5 14.5h-50q-21 0 -35.5 -14.5t-14.5 -35.5h-200l50 370h480v-200h-315l-15 -99q0 20 38 34.5 t92 14.5h20q83 0 141.5 -47t58.5 -113v-40z" />
<glyph unicode="6" horiz-adv-x="600" d="M550 200q0 -83 -58.5 -141.5t-141.5 -58.5h-150q-83 0 -141.5 58.5t-58.5 141.5v250q0 83 58.5 141.5t141.5 58.5h150q83 0 141.5 -58.5t58.5 -141.5v-30h-200q0 21 -14.5 35.5t-35.5 14.5h-50q-21 0 -35.5 -14.5t-14.5 -35.5v-89q0 20 38 34.5t92 14.5h20 q83 0 141.5 -47t58.5 -113v-20zM350 230v30q0 21 -14.5 35.5t-35.5 14.5h-50q-21 0 -35.5 -14.5t-14.5 -35.5v-30q0 -21 14.5 -35.5t35.5 -14.5h50q21 0 35.5 14.5t14.5 35.5z" />
<glyph unicode="7" horiz-adv-x="600" d="M550 450l-82 -62q-71 -59 -112 -132q-56 -100 -56 -226v-30h-200v60q0 125 60 245q53 106 115 145h-275v200h550v-200z" />
<glyph unicode="8" horiz-adv-x="600" d="M550 200q0 -83 -58.5 -141.5t-141.5 -58.5h-150q-83 0 -141.5 58.5t-58.5 141.5q0 48 12 74q8 18 38 51q-30 33 -38 51q-12 26 -12 74q0 83 58.5 141.5t141.5 58.5h150q83 0 141.5 -58.5t58.5 -141.5q0 -48 -12 -74q-8 -18 -38 -51q30 -33 38 -51q12 -26 12 -74zM350 420 q0 21 -14.5 35.5t-35.5 14.5h-50q-21 0 -35.5 -14.5t-14.5 -35.5t14.5 -35.5t35.5 -14.5h50q21 0 35.5 14.5t14.5 35.5zM350 230q0 21 -14.5 35.5t-35.5 14.5h-50q-21 0 -35.5 -14.5t-14.5 -35.5t14.5 -35.5t35.5 -14.5h50q21 0 35.5 14.5t14.5 35.5z" />
<glyph unicode="9" horiz-adv-x="600" d="M550 200q0 -83 -58.5 -141.5t-141.5 -58.5h-150q-83 0 -141.5 58.5t-58.5 141.5v30h200q0 -21 14.5 -35.5t35.5 -14.5h50q21 0 35.5 14.5t14.5 35.5v89q0 -20 -38 -34.5t-92 -14.5h-20q-83 0 -141.5 47t-58.5 113v20q0 83 58.5 141.5t141.5 58.5h150q83 0 141.5 -58.5 t58.5 -141.5v-250zM350 390v30q0 21 -14.5 35.5t-35.5 14.5h-50q-21 0 -35.5 -14.5t-14.5 -35.5v-30q0 -21 14.5 -35.5t35.5 -14.5h50q21 0 35.5 14.5t14.5 35.5z" />
<glyph unicode=":" horiz-adv-x="250" d="M200 450q0 -41 -29.5 -70.5t-70.5 -29.5t-70.5 29.5t-29.5 70.5t29.5 70.5t70.5 29.5t70.5 -29.5t29.5 -70.5zM200 100q0 -41 -29.5 -70.5t-70.5 -29.5t-70.5 29.5t-29.5 70.5t29.5 70.5t70.5 29.5t70.5 -29.5t29.5 -70.5z" />
<glyph unicode=";" horiz-adv-x="250" d="M200 450q0 -41 -29.5 -70.5t-70.5 -29.5t-70.5 29.5t-29.5 70.5t29.5 70.5t70.5 29.5t70.5 -29.5t29.5 -70.5zM200 100q0 -83 -58.5 -141.5t-141.5 -58.5v50q41 0 70.5 14.5t29.5 35.5q-41 0 -70.5 29.5t-29.5 70.5t29.5 70.5t70.5 29.5t70.5 -29.5t29.5 -70.5zM0 -100z " />
<glyph unicode="&#x3c;" horiz-adv-x="250" d="M270 0h-340v200h340v-200z" />
<glyph unicode="&#x3e;" horiz-adv-x="250" d="M270 450h-340v200h340v-200z" />
<glyph unicode="?" horiz-adv-x="550" d="M500 430q0 -54 -50 -92t-120 -38q-21 0 -35.5 -14.5t-14.5 -35.5h-160v20q0 54 38 92t92 38q21 0 35.5 14.5t14.5 35.5v20q0 21 -14.5 35.5t-35.5 14.5t-35.5 -14.5t-14.5 -35.5v-40h-200v20q0 83 58.5 141.5t141.5 58.5h100q83 0 141.5 -58.5t58.5 -141.5v-20zM300 100 q0 -41 -29.5 -70.5t-70.5 -29.5t-70.5 29.5t-29.5 70.5t29.5 70.5t70.5 29.5t70.5 -29.5t29.5 -70.5z" />
<glyph unicode="@" horiz-adv-x="700" d="M650 320q0 -135 -95 -230t-230 -95t-230 95t-95 230q0 91 46.5 167.5t123.5 118.5q-74 -75 -74 -165q0 -65 27 -112q34 -59 98 -59q35 0 55 47q16 39 16 86q0 54 -27 95q-25 38 -62 50l37 44q32 -18 49 -52q-4 65 -23 84l59 71l59 -71q-19 -19 -23 -84q17 34 49 52 l37 -44q-37 -12 -62 -50q-27 -41 -27 -95q0 -47 16 -86q20 -47 55 -47q64 0 98 59q27 47 27 112q0 90 -74 165q77 -42 123.5 -118.5t46.5 -167.5z" />
<glyph unicode="A" horiz-adv-x="750" d="M700 0h-210l-27 80h-226l-27 -80h-210l152 450h-222v200h550zM416 220l-66 194l-66 -194h132z" />
<glyph unicode="B" d="M600 220q0 -91 -64.5 -155.5t-155.5 -64.5h-380v450h-70v200h450q91 0 155.5 -64.5t64.5 -155.5q0 -39 -37 -105q37 -66 37 -105zM400 430q0 50 -60 50h-140v-100h140q60 0 60 50zM400 220q0 50 -60 50h-140v-100h140q60 0 60 50z" />
<glyph unicode="C" horiz-adv-x="600" d="M550 0h-225q-135 0 -230 95t-95 230q0 134 95.5 229.5t229.5 95.5h225v-200h-225q-52 0 -88.5 -36.5t-36.5 -88.5t36.5 -88.5t88.5 -36.5h225v-200z" />
<glyph unicode="D" d="M600 325q0 -135 -95 -230t-230 -95h-275v450h-70v200h345q134 0 229.5 -95.5t95.5 -229.5zM400 325q0 52 -36.5 88.5t-88.5 36.5h-75v-250h75q52 0 88.5 36.5t36.5 88.5z" />
<glyph unicode="E" d="M600 0h-600v450h-70v200h670v-200h-400v-50h300v-150h-300v-50h400v-200z" />
<glyph unicode="F" d="M600 450h-400v-50h300v-150h-300v-250h-200v450h-70v200h670v-200z" />
<glyph unicode="G" d="M600 0h-275q-135 0 -230 95t-95 230q0 134 95.5 229.5t229.5 95.5h275v-200h-275q-52 0 -88.5 -36.5t-36.5 -88.5t36.5 -88.5t88.5 -36.5h75v150h200v-350z" />
<glyph unicode="H" d="M600 0h-200v250h-200v-250h-200v450h-70v200h270v-250h200v250h200v-650z" />
<glyph unicode="I" horiz-adv-x="250" d="M200 0h-200v450h-70v200h270v-650z" />
<glyph unicode="J" horiz-adv-x="400" d="M350 100q0 -124 -88 -212t-212 -88l-50 200h50q41 0 70.5 29.5t29.5 70.5v350h-220v200h420v-550z" />
<glyph unicode="K" horiz-adv-x="670" d="M620 0h-140q-80 0 -140 60l-140 140v-200h-200v450h-70v200h270v-255l170 255h230l-225 -337l95 -94q19 -19 60 -19h90v-200z" />
<glyph unicode="L" d="M600 0h-600v450h-70v200h270v-450h400v-200z" />
<glyph unicode="M" horiz-adv-x="750" d="M700 0h-200v220l-150 -220l-150 220v-220h-200v450h-70v200h270l150 -220l150 220h200v-650z" />
<glyph unicode="N" d="M600 0h-200q0 186 -82 273q-54 57 -118 57v-330h-200v450h-70v200h74q141 0 257 -55q103 -49 139 -115v170h200v-650z" />
<glyph unicode="O" horiz-adv-x="700" d="M650 325q0 -134 -95.5 -229.5t-229.5 -95.5q-135 0 -230 95t-95 230q0 134 95.5 229.5t229.5 95.5t229.5 -95.5t95.5 -229.5zM450 325q0 51 -37 88t-88 37q-52 0 -88.5 -36.5t-36.5 -88.5t36.5 -88.5t88.5 -36.5t88.5 36.5t36.5 88.5z" />
<glyph unicode="P" d="M600 430q0 -91 -64.5 -155.5t-155.5 -64.5h-180v-210h-200v450h-70v200h450q91 0 155.5 -64.5t64.5 -155.5zM400 430q0 50 -60 50h-140v-100h140q60 0 60 50z" />
<glyph unicode="Q" horiz-adv-x="750" d="M700 0h-375q-134 0 -229.5 95.5t-95.5 229.5t95.5 229.5t229.5 95.5t229.5 -95.5t95.5 -229.5q0 -65 -25 -125h75v-200zM450 325q0 52 -36.5 88.5t-88.5 36.5q-51 0 -88 -37t-37 -88q0 -52 36.5 -88.5t88.5 -36.5t88.5 36.5t36.5 88.5z" />
<glyph unicode="R" horiz-adv-x="670" d="M620 0h-130q-80 0 -140 60l-150 150v-210h-200v450h-70v200h450q91 0 155.5 -64.5t64.5 -155.5q0 -65 -35.5 -119.5t-94.5 -81.5q13 -29 50 -29h100v-200zM400 430q0 50 -60 50h-140v-100h140q60 0 60 50z" />
<glyph unicode="S" d="M600 450h-264q-9 -3 -9 -12q0 -5 3 -10l78 -44q122 -68 122 -184q0 -83 -58.5 -141.5t-141.5 -58.5h-400v200h334q9 3 9 12q0 5 -3 10l-78 44q-122 68 -122 184q0 83 58.5 141.5t141.5 58.5h330v-200z" />
<glyph unicode="T" d="M600 450h-200v-450h-200v450h-270v200h670v-200z" />
<glyph unicode="U" d="M600 300q0 -124 -88 -212t-212 -88t-212 88t-88 212v150h-70v200h270v-350q0 -41 29.5 -70.5t70.5 -29.5t70.5 29.5t29.5 70.5v350h200v-350z" />
<glyph unicode="V" horiz-adv-x="750" d="M700 650l-220 -650h-260l-152 450h-138v200h280l140 -414l140 414h210z" />
<glyph unicode="W" horiz-adv-x="1050" d="M1000 650l-220 -650h-200l-80 230l-80 -230h-200l-152 450h-138v200h280l95 -270l95 270h200l95 -270l95 270h210z" />
<glyph unicode="X" horiz-adv-x="700" d="M650 0h-240l-85 135l-85 -135h-240l205 325l-79 125h-196v200h310l85 -135l85 135h240l-205 -325z" />
<glyph unicode="Y" horiz-adv-x="700" d="M650 650l-225 -345v-305h-200v305l-95 145h-200v200h310l85 -135l85 135h240z" />
<glyph unicode="Z" d="M600 0h-600v200l290 250h-360v200h670v-200l-290 -250h290v-200z" />
<glyph unicode="a" horiz-adv-x="750" d="M700 0h-210l-27 80h-226l-27 -80h-210l220 650h260zM416 220l-66 194l-66 -194h132z" />
<glyph unicode="b" d="M600 220q0 -91 -64.5 -155.5t-155.5 -64.5h-380v650h380q91 0 155.5 -64.5t64.5 -155.5q0 -39 -37 -105q37 -66 37 -105zM400 430q0 50 -60 50h-140v-100h140q60 0 60 50zM400 220q0 50 -60 50h-140v-100h140q60 0 60 50z" />
<glyph unicode="c" horiz-adv-x="600" d="M550 0h-225q-135 0 -230 95t-95 230q0 134 95.5 229.5t229.5 95.5h225v-200h-225q-52 0 -88.5 -36.5t-36.5 -88.5t36.5 -88.5t88.5 -36.5h225v-200z" />
<glyph unicode="d" d="M600 325q0 -135 -95 -230t-230 -95h-275v650h275q134 0 229.5 -95.5t95.5 -229.5zM400 325q0 52 -36.5 88.5t-88.5 36.5h-75v-250h75q52 0 88.5 36.5t36.5 88.5z" />
<glyph unicode="e" d="M600 0h-600v650h600v-200h-400v-50h300v-150h-300v-50h400v-200z" />
<glyph unicode="f" d="M600 450h-400v-50h300v-150h-300v-250h-200v650h600v-200z" />
<glyph unicode="g" d="M600 0h-275q-135 0 -230 95t-95 230q0 134 95.5 229.5t229.5 95.5h275v-200h-275q-52 0 -88.5 -36.5t-36.5 -88.5t36.5 -88.5t88.5 -36.5h75v150h200v-350z" />
<glyph unicode="h" d="M600 0h-200v250h-200v-250h-200v650h200v-250h200v250h200v-650z" />
<glyph unicode="i" horiz-adv-x="250" d="M200 0h-200v650h200v-650z" />
<glyph unicode="j" horiz-adv-x="400" d="M350 100q0 -124 -88 -212t-212 -88l-50 200h50q41 0 70.5 29.5t29.5 70.5v550h200v-550z" />
<glyph unicode="k" horiz-adv-x="670" d="M620 0h-140q-80 0 -140 60l-140 140v-200h-200v650h200v-255l170 255h230l-225 -337l95 -94q19 -19 60 -19h90v-200z" />
<glyph unicode="l" d="M600 0h-600v650h200v-450h400v-200z" />
<glyph unicode="m" horiz-adv-x="750" d="M700 0h-200v220l-150 -220l-150 220v-220h-200v650h200l150 -220l150 220h200v-650z" />
<glyph unicode="n" d="M600 0h-200q0 186 -82 273q-54 57 -118 57v-330h-200v650h4q141 0 257 -55q103 -49 139 -115v170h200v-650z" />
<glyph unicode="o" horiz-adv-x="700" d="M650 325q0 -134 -95.5 -229.5t-229.5 -95.5q-135 0 -230 95t-95 230q0 134 95.5 229.5t229.5 95.5t229.5 -95.5t95.5 -229.5zM450 325q0 51 -37 88t-88 37q-52 0 -88.5 -36.5t-36.5 -88.5t36.5 -88.5t88.5 -36.5t88.5 36.5t36.5 88.5z" />
<glyph unicode="p" d="M600 430q0 -91 -64.5 -155.5t-155.5 -64.5h-180v-210h-200v650h380q91 0 155.5 -64.5t64.5 -155.5zM400 430q0 50 -60 50h-140v-100h140q60 0 60 50z" />
<glyph unicode="q" horiz-adv-x="750" d="M700 0h-375q-134 0 -229.5 95.5t-95.5 229.5t95.5 229.5t229.5 95.5t229.5 -95.5t95.5 -229.5q0 -65 -25 -125h75v-200zM450 325q0 52 -36.5 88.5t-88.5 36.5q-51 0 -88 -37t-37 -88q0 -52 36.5 -88.5t88.5 -36.5t88.5 36.5t36.5 88.5z" />
<glyph unicode="r" horiz-adv-x="670" d="M620 0h-130q-80 0 -140 60l-150 150v-210h-200v650h380q91 0 155.5 -64.5t64.5 -155.5q0 -65 -35.5 -119.5t-94.5 -81.5q13 -29 50 -29h100v-200zM400 430q0 50 -60 50h-140v-100h140q60 0 60 50z" />
<glyph unicode="s" d="M600 450h-264q-9 -3 -9 -12q0 -5 3 -10l78 -44q122 -68 122 -184q0 -83 -58.5 -141.5t-141.5 -58.5h-330v200h264q9 3 9 12q0 5 -3 10l-78 44q-122 68 -122 184q0 83 58.5 141.5t141.5 58.5h330v-200z" />
<glyph unicode="t" d="M600 450h-200v-450h-200v450h-200v200h600v-200z" />
<glyph unicode="u" d="M600 300q0 -124 -88 -212t-212 -88t-212 88t-88 212v350h200v-350q0 -41 29.5 -70.5t70.5 -29.5t70.5 29.5t29.5 70.5v350h200v-350z" />
<glyph unicode="v" horiz-adv-x="750" d="M700 650l-220 -650h-260l-220 650h210l140 -414l140 414h210z" />
<glyph unicode="w" horiz-adv-x="1050" d="M1000 650l-220 -650h-200l-80 230l-80 -230h-200l-220 650h210l95 -270l95 270h200l95 -270l95 270h210z" />
<glyph unicode="x" horiz-adv-x="700" d="M650 0h-240l-85 135l-85 -135h-240l205 325l-205 325h240l85 -135l85 135h240l-205 -325z" />
<glyph unicode="y" horiz-adv-x="700" d="M650 650l-225 -345v-305h-200v305l-225 345h240l85 -135l85 135h240z" />
<glyph unicode="z" d="M600 0h-600v200l290 250h-290v200h600v-200l-290 -250h290v-200z" />
<glyph unicode="&#xa1;" horiz-adv-x="250" d="M200 550q0 -41 -29.5 -70.5t-70.5 -29.5t-70.5 29.5t-29.5 70.5t29.5 70.5t70.5 29.5t70.5 -29.5t29.5 -70.5zM200 0h-200l20 400h160z" />
<glyph unicode="&#xa9;" horiz-adv-x="700" d="M330 165q0 -68 -48.5 -116.5t-116.5 -48.5t-116.5 48.5t-48.5 116.5t48.5 116.5t116.5 48.5t116.5 -48.5t48.5 -116.5zM310 165q0 60 -42.5 102.5t-102.5 42.5t-102.5 -42.5t-42.5 -102.5t42.5 -102.5t102.5 -42.5t102.5 42.5t42.5 102.5zM231 57h-74q-44 0 -75.5 31.5 t-31.5 75.5q0 45 31.5 76t75.5 31h74v-66h-74q-17 0 -29 -12t-12 -29t12 -29t29 -12h74v-66z" />
<glyph unicode="&#xad;" horiz-adv-x="450" d="M350 275h-300v100h300v-100z" />
<glyph unicode="&#xae;" horiz-adv-x="380" d="M330 165q0 -68 -48.5 -116.5t-116.5 -48.5t-116.5 48.5t-48.5 116.5t48.5 116.5t116.5 48.5t116.5 -48.5t48.5 -116.5zM202 202q0 16 -20 16h-46v-33h46q20 0 20 17zM310 165q0 60 -42.5 102.5t-102.5 42.5t-102.5 -42.5t-42.5 -102.5t42.5 -102.5t102.5 -42.5 q58 0 100 40h-33q-27 0 -47 20l-49 49v-69h-66v214h125q30 0 51.5 -21t21.5 -51q0 -47 -43 -66q4 -10 17 -10h33v-56q35 41 35 95z" />
<glyph unicode="&#xb6;" horiz-adv-x="550" d="M500 450h-50v-450h-100v450h-50v-450h-100v250q-83 0 -141.5 58.5t-58.5 141.5t58.5 141.5t141.5 58.5h300v-200z" />
<glyph unicode="&#xbf;" horiz-adv-x="550" d="M400 550q0 -41 -29.5 -70.5t-70.5 -29.5t-70.5 29.5t-29.5 70.5t29.5 70.5t70.5 29.5t70.5 -29.5t29.5 -70.5zM500 200q0 -83 -58.5 -141.5t-141.5 -58.5h-100q-83 0 -141.5 58.5t-58.5 141.5v20q0 54 50 92t120 38q21 0 35.5 14.5t14.5 35.5h160v-20q0 -54 -38 -92 t-92 -38q-21 0 -35.5 -14.5t-14.5 -35.5v-20q0 -21 14.5 -35.5t35.5 -14.5t35.5 14.5t14.5 35.5v40h200v-20z" />
<glyph unicode="&#xc6;" horiz-adv-x="1070" d="M1020 0h-500v80h-217l-53 -80h-250l431 650h589v-200h-300v-60h200v-130h-200v-60h300v-200zM520 220v187l-125 -187h125z" />
<glyph unicode="&#xe6;" horiz-adv-x="1070" d="M1020 0h-500v80h-217l-53 -80h-250l431 650h589v-200h-300v-60h200v-130h-200v-60h300v-200zM520 220v187l-125 -187h125z" />
<glyph unicode="&#x152;" horiz-adv-x="1000" d="M950 0h-500v25q-60 -25 -125 -25q-135 0 -230 95t-95 230q0 134 95.5 229.5t229.5 95.5q65 0 125 -25v25h500v-200h-300v-60h200v-130h-200v-60h300v-200zM450 325q0 51 -37 88t-88 37q-52 0 -88.5 -36.5t-36.5 -88.5t36.5 -88.5t88.5 -36.5t88.5 36.5t36.5 88.5z" />
<glyph unicode="&#x153;" horiz-adv-x="1000" d="M950 0h-500v25q-60 -25 -125 -25q-135 0 -230 95t-95 230q0 134 95.5 229.5t229.5 95.5q65 0 125 -25v25h500v-200h-300v-60h200v-130h-200v-60h300v-200zM450 325q0 51 -37 88t-88 37q-52 0 -88.5 -36.5t-36.5 -88.5t36.5 -88.5t88.5 -36.5t88.5 36.5t36.5 88.5z" />
<glyph unicode="&#x2000;" horiz-adv-x="375" />
<glyph unicode="&#x2001;" horiz-adv-x="750" />
<glyph unicode="&#x2002;" horiz-adv-x="375" />
<glyph unicode="&#x2003;" horiz-adv-x="750" />
<glyph unicode="&#x2004;" horiz-adv-x="250" />
<glyph unicode="&#x2005;" horiz-adv-x="187" />
<glyph unicode="&#x2006;" horiz-adv-x="125" />
<glyph unicode="&#x2007;" horiz-adv-x="125" />
<glyph unicode="&#x2008;" horiz-adv-x="93" />
<glyph unicode="&#x2009;" horiz-adv-x="150" />
<glyph unicode="&#x200a;" horiz-adv-x="41" />
<glyph unicode="&#x2010;" horiz-adv-x="450" d="M350 275h-300v100h300v-100z" />
<glyph unicode="&#x2011;" horiz-adv-x="450" d="M350 275h-300v100h300v-100z" />
<glyph unicode="&#x2012;" horiz-adv-x="450" d="M350 275h-300v100h300v-100z" />
<glyph unicode="&#x2013;" d="M550 275h-500v100h500v-100z" />
<glyph unicode="&#x2014;" horiz-adv-x="1150" d="M1050 275h-1000v100h1000v-100z" />
<glyph unicode="&#x2018;" horiz-adv-x="250" d="M200 500q0 -41 -29.5 -70.5t-70.5 -29.5t-70.5 29.5t-29.5 70.5q0 83 58.5 141.5t141.5 58.5v-50q-41 0 -70.5 -14.5t-29.5 -35.5q41 0 70.5 -29.5t29.5 -70.5zM200 700z" />
<glyph unicode="&#x2019;" horiz-adv-x="250" d="M200 550q0 -83 -58.5 -141.5t-141.5 -58.5v50q41 0 70.5 14.5t29.5 35.5q-41 0 -70.5 29.5t-29.5 70.5t29.5 70.5t70.5 29.5t70.5 -29.5t29.5 -70.5zM0 350z" />
<glyph unicode="&#x201a;" horiz-adv-x="250" d="M200 100q0 -83 -58.5 -141.5t-141.5 -58.5v50q41 0 70.5 14.5t29.5 35.5q-41 0 -70.5 29.5t-29.5 70.5t29.5 70.5t70.5 29.5t70.5 -29.5t29.5 -70.5zM0 -100z" />
<glyph unicode="&#x201c;" horiz-adv-x="470" d="M420 500q0 -41 -29.5 -70.5t-70.5 -29.5t-70.5 29.5t-29.5 70.5q0 83 58.5 141.5t141.5 58.5v-50q-41 0 -70.5 -14.5t-29.5 -35.5q41 0 70.5 -29.5t29.5 -70.5zM200 500q0 -41 -29.5 -70.5t-70.5 -29.5t-70.5 29.5t-29.5 70.5q0 83 58.5 141.5t141.5 58.5v-50 q-41 0 -70.5 -14.5t-29.5 -35.5q41 0 70.5 -29.5t29.5 -70.5zM420 700zM200 700z" />
<glyph unicode="&#x201d;" horiz-adv-x="470" d="M420 550q0 -83 -58.5 -141.5t-141.5 -58.5v50q41 0 70.5 14.5t29.5 35.5q-41 0 -70.5 29.5t-29.5 70.5t29.5 70.5t70.5 29.5t70.5 -29.5t29.5 -70.5zM200 550q0 -83 -58.5 -141.5t-141.5 -58.5v50q41 0 70.5 14.5t29.5 35.5q-41 0 -70.5 29.5t-29.5 70.5t29.5 70.5 t70.5 29.5t70.5 -29.5t29.5 -70.5zM220 350zM0 350z" />
<glyph unicode="&#x201e;" horiz-adv-x="470" d="M420 100q0 -83 -58.5 -141.5t-141.5 -58.5v50q41 0 70.5 14.5t29.5 35.5q-41 0 -70.5 29.5t-29.5 70.5t29.5 70.5t70.5 29.5t70.5 -29.5t29.5 -70.5zM200 100q0 -83 -58.5 -141.5t-141.5 -58.5v50q41 0 70.5 14.5t29.5 35.5q-41 0 -70.5 29.5t-29.5 70.5t29.5 70.5 t70.5 29.5t70.5 -29.5t29.5 -70.5zM220 -100zM0 -100z" />
<glyph unicode="&#x202f;" horiz-adv-x="150" />
<glyph unicode="&#x205f;" horiz-adv-x="187" />
<glyph unicode="&#xe000;" d="M0 650h650v-650h-650v650z" />
</font>
</defs>
</svg>
